<svg class="w-32 h-10 | lg:w-36 lg:h-14 text-gray-600 fill-current 4xl:w-40 4xl:h-16 dark:text-white" width="292" height="184" xmlns="http://www.w3.org/2000/svg" viewBox="0 0 292 184" f="none">
<path fill-rule="evenodd" clip-rule="evenodd" d="M0.9 127.5C6.5 130.5 12.8 131.8 18.8 131.8C33.1 131.8 45.5 127 45.3 110.7C45.3 98.7731 35.1081 94.183 26.4691 90.2922C20.1144 87.4303 14.6 84.9468 14.6 80.2C14.6 74 21.3 72.6 28.1 72.9C31.8 73.1 35.4 74 40.4 75.7H40.6L41.3 75.1L42.4 67.6V67.4L41.8 66.6C38.7 65.2 31.9 63.2 26 63.2C14.1 63.2 0 65.8 0 80.8C0 92.6608 9.31267 96.9741 17.663 100.842C24.4493 103.985 30.6 106.834 30.6 113.2C30.6 120.3 23 122.2 16 121.9C11 121.6 8.5 121 1 117.8C0.4 117.6 0.1 118.3 0.1 118.8L0.200001 126.5C0.200001 127.081 0.38746 127.193 0.853126 127.472L0.9 127.5ZM82 103.6C82.7 103.6 82.9 103.8 82.9 104.4V120.5C82.9 121.2 82.7 121.5 81.9 121.5H75.4C68.6 121.5 64.8 119.3 64.8 112.1C64.8 105.4 68.5 103.6 75.4 103.6H82ZM96.2 129.6C97 129.4 97.2 128.9 97.2 128.2H97.1V95C97.1 79.4 88.2 73.9 74.3 73.9C68.7 73.9 61.1 74.5 56.6 75.1L55.9 75.9V76.1L56.7 83.1C56.9 83.7 57.1 84 57.7 84H58C58.3058 83.9752 58.6177 83.9497 58.9346 83.9239C62.4515 83.6366 66.5727 83.3 69.6 83.3C79.6 83.3 82.7 86.9 82.7 95.6C79.9 95.2 74.2 94.5 70.8 94.5C59.7 94.5 50.1 98 50.1 112.6C50.1 127.5 60 131.7 73.8 131.7C80.8647 131.7 88.6391 130.635 95.034 129.759C95.4281 129.706 95.8169 129.652 96.2 129.6ZM106.4 130.5H119.2C119.9 130.5 120 130.3 120.1 129.5V55.7C120.1 55 119.7 54.7 119.1 54.7L106.4 55.7C105.8 55.9 105.6 56.2 105.6 56.8V129.5C105.6 130.2 105.8 130.5 106.4 130.5ZM170.7 103.2C170.7 88.3 173.7 82.9 182 82.9C190.2 82.9 193.2 88.3 193.2 103.2C193.2 117.1 190.2 122.5 182 122.5C173.9 122.5 170.7 117.3 170.7 103.2ZM156.1 103.3C156.1 122.1 165.8 131.6 182 131.6C198.2 131.6 207.7 122 207.8 103.3C207.8 82.7 197.6 74.1 182 74.1C166.3 74.1 156.1 82.9 156.1 103.3ZM273.755 84.0612C273.903 84.0741 274.051 84.0871 274.2 84.1C274.7 84.2 274.9 84.6 274.8 85.2V119.9L274.1 121C272.4 121.3 269.9 121.6 267.9 121.6C259.3 121.6 254.4 115.9 254.4 102.7C254.4 89.3 258.9 83.7 267.1 83.7C269.625 83.7 271.625 83.8749 273.755 84.0612ZM268 131.7C275.7 131.7 282.1 130.6 288.3 129.5C289.1 129.4 289.4 128.7 289.4 127.9V56.2C289.4 55.6 289.1 55 288.4 54.9L276.1 55.9C275.4 56.1 275.1 56.5 275.1 57.2V74.2L274.5 75H274.3C273.909 74.9588 273.357 74.8923 272.695 74.8125C270.143 74.5046 265.959 74 263.1 74C250.7 74 239.6 80.5 239.6 101.9C239.6 124.1 251.5 131.7 268 131.7ZM231.249 84.0666C233.837 83.8558 236.075 83.6737 238.8 83.6C239.4 83.6 239.7 83.2 239.7 82.8V75.6C239.7 75 239.4 74.6 238.9 74.6C231.9 74.9 219.7 75.9 213.8 76.8C213.2 77 212.9 77.4 212.9 78.1V129.6C212.9 130.3 213.3 130.6 213.8 130.6H226.6C227.2 130.6 227.5 130.3 227.5 129.5V85.2L228.3 84.3C229.354 84.221 230.324 84.142 231.249 84.0666ZM149.7 42.8C152.5 44.2 155.6 44.9 158.6 44.9C165.7 44.9 171.4 42.5 171.3 34.4C171.3 28.6766 166.01 26.574 161.385 24.7355C157.767 23.2975 154.556 22.0211 154.6 19.3C154.7 15.7 159.6 15.3 163.3 15.6C165.4 15.7 166.4 15.9 168.9 16.7L169.2 16.4L169.7 12.7V12.6L169.4 12.2C167.9 11.5 165.1 10.9 162.2 10.9C156.3 10.9 149.3 12.2 149.3 19.6C149.3 25.2723 154.082 27.1647 158.528 28.9242C162.391 30.4527 166 31.881 166 35.6C166 39.7 160.3 40.2 157.2 40C154.7 39.9 153.5 39.6 149.8 38L149.4 38.5V42.3L149.7 42.8ZM14 44.9C22.4 44.9 28 39.8 28 30L28.1 5.5L27.5 4.90002H23L22.5 5.5V29.5C22.5 36.8 19.6 39.7 14.2 39.7C8.3 39.7 5.6 36.9 5.6 29.5V5.5L5.1 4.90002H0.6L0.1 5.5V30.1C0.1 39.7 5.5 44.9 14 44.9ZM54.5 44.4H59L59.6 43.8V23.6C59.6 13.8 54.4 11 45.8 11C42.9 11 38.2 11.6 34 12.3L33.4 13V43.8L33.9 44.4H38.4L38.9 43.8V16.8L39.4 16.2C41.1 16 43.7 15.8 45.5 15.8C51.1 15.8 54 17.6 54 24V43.8L54.5 44.4ZM65.8 44.4H70.3L70.7 43.8V11.7L70.2 11.2H65.8L65.3 11.8V43.8L65.8 44.4ZM70.3 7.10001L70.8 6.5V1.70001L70.3 1.10001H65.8L65.3 1.70001V6.5L65.8 7.10001H70.3ZM96.1 11.2H100.6L101.2 11.7V11.9L91.8 43.9L91.1 44.5H85L84.4 43.9L74.9 11.7L74.8 11.5L75.3 11.2H80.2L80.7 11.7L87.7 39.3L88 39.6L88.3 39.2L95.6 11.6L96.1 11.2ZM107.2 25.3C107.2 18.8 110.5 15.7 115.6 15.7C120.8 15.7 124.3 18.8 124.5 25.4L123.9 25.9H107.7L107.2 25.3ZM107.8 30.4H129.6L130.2 29.7C130.2 16.8 125.7 10.9 116.1 10.9C108.3 10.9 101.8 15.1 101.8 27.6C101.8 40.6 107.8 44.7 116.7 44.7C120 44.7 123.1 44.3 125.7 43.9L126.3 43.4L126.8 39.9V39.8L126.3 39.4C123.5 39.7 120.8 39.9 118.4 39.9C111.9 39.9 107.5 38.3 107.3 31L107.8 30.4ZM176.6 44.4H181.1L181.5 43.8V11.7L181 11.2H176.6L176.1 11.8V43.8L176.6 44.4ZM181.1 7.10001L181.6 6.5V1.70001L181.1 1.10001H176.6L176.1 1.70001V6.5L176.6 7.10001H181.1ZM203.2 44.2L203.8 43.7L204.3 40.3L203.8 39.7H200.6C196.7 39.7 196.2 38.3 196.2 34.9V15.8L196.7 15.2H202.3L202.8 14.7V11.9L202.3 11.3H196.7L196.2 10.7V2.5L195.6 1.90002L191.2 2.40002L190.7 3.10001V10.7L190.2 11.3H186.6L186.1 11.8V14.6L186.6 15.2H190.1L190.6 15.8V36.4C190.6 42.2 192.8 44.7 197.8 44.7C199.537 44.7 200.902 44.5137 202.972 44.2311L203.2 44.2ZM141.17 16.0951C142.92 15.9356 144.407 15.8 146.3 15.8L146.8 15.4V11.6L146.3 11C142.647 11.085 139.138 11.603 136.018 12.0636C135.466 12.1451 134.926 12.2248 134.4 12.3L133.9 13.1V43.9L134.4 44.5H138.9L139.4 43.9V16.8L140 16.2C140.407 16.1647 140.794 16.1293 141.17 16.0951ZM229 11.2H233.6L233.9 11.5V11.6L227.3 37.1C225.8 42.8 222.9 50.4 218.7 55.1L218 55.5H213.1L212.7 55.1L212.8 54.8C214.1 53.4 217.6 49.2 218.7 46.1C219.1 45.2 219.1 44.8 219.1 44.8L218.7 44.3H218.6C218.1 44.3 216.6 43.9 216.1 42.3L207.1 11.6V11.5L207.6 11.2H212.5L213.1 11.6L220.9 39.1L221.3 39.6L221.6 39.2L228.5 11.6L229 11.2ZM133.2 74C134.9 55 150.8 53 153.4 53L154.7 53.9L157.3 59.2L157.4 59.4L157.5 60V60.1L157.4 60.2L157.3 60.3L157.2 60.4L156.9 60.5C151.8 62.7 147.9 67.5 147.1 74C147.1 74.8 147.2 75.1 148 75.1H155.2C155.9 75.1 156.2 75.5 156.2 76.1V82.8C156.2 83.4 155.9 83.8 155.3 83.8H148.2C147.6 83.8 147.3 84.1 147.3 84.9V129.5C147.3 130.3 147 130.7 146.4 130.7H133.7C133 130.7 132.7 130.3 132.7 129.5V84.9C132.7 84.2 132.5 83.7 131.8 83.7L126.2 83.8C125.5 83.8 125.3 83.5 125.3 82.8V76.1C125.3 75.4 125.5 75.1 126.1 75.1H132.1C132.8 75.1 133.1 74.8 133.2 74ZM247.6 28.2C247.6 18.6 251.9 15.5 257.1 15.5C262.5 15.5 266.9 18.6 266.8 28.2C266.8 36.4 262.9 40.1 257.2 40.1C251.5 40.1 247.6 36.5 247.6 28.2ZM242.1 28.2C242.1 39.6 249.4 45 257.1 45C265.3 45 272.3 39.4 272.3 28.2C272.3 16.3 265.8 11 257.2 11C248.6 11 242.1 16.4 242.1 28.2ZM277.8 10.6C278.5 2.20001 286.6 0 288.1 0L288.5 0.200012L289.6 2.40002L289.5 2.90002C286.3 4.10002 283.6 6.80001 283 10.6L283.5 11.2H288.8L289.4 11.8V14.5L288.9 15.1H283.5L283 15.7V43.7L282.5 44.4H278L277.4 43.7V15.9L276.9 15.2H273.6L273.1 14.6V11.8L273.6 11.2H277.2L277.8 10.6ZM26.2 160.201V182.901V183.001H30.7V147.901H25L17.5999 163.601C17.5232 163.765 17.4453 163.932 17.3664 164.101C16.7257 165.472 16.0232 166.976 15.4 168.401H15.2999C14.9499 167.651 14.5999 166.851 14.25 166.051C13.9 165.251 13.55 164.451 13.2 163.701L5.89995 147.901H0.199951V183.001H4.49995V160.201C4.49995 158.157 4.43816 156.793 4.36314 155.137C4.34273 154.686 4.32134 154.214 4.29995 153.701H4.39995C4.79995 154.601 5.22495 155.501 5.64995 156.401C6.07495 157.301 6.49995 158.201 6.89995 159.101L13.5 173.301H17.0999L23.7999 159.101C24.6999 157.301 25.5 155.601 26.2999 153.701H26.4C26.3796 154.188 26.3593 154.643 26.3398 155.079C26.2634 156.788 26.2 158.209 26.2 160.201ZM50.0999 151.601C50.5 153.601 50.9 155.401 51.5 157.301L54.9 167.501H44.9L48.1999 157.301C48.7999 155.501 49.1999 153.701 49.5999 151.601H50.0999ZM56.0999 171.401L59.6999 182.901H64.5L53 147.801H47L35.5 182.901H39.9L43.5999 171.401H56.0999ZM75.3 157.701L87.7 182.901V182.801H93.8V147.701H89.5999V170.501C89.5999 172.701 89.6 175.401 89.8 178.201H89.7C89.127 176.84 88.349 175.223 87.6596 173.79C87.3864 173.222 87.127 172.683 86.8999 172.201L74.7 147.701H68.5V182.801H72.5999V159.001C72.5999 156.601 72.4999 154.001 72.3999 151.701H72.5C73.4 153.801 74.4 156.001 75.3 157.701ZM99.8 168.301C99.8 180.601 106 183.601 114 183.601C117.2 183.601 120.7 183.001 122.1 182.701V179.201C119.9 179.401 116.6 179.601 114 179.601C107.4 179.601 104.2 176.801 104.2 168.201V162.401C104.2 153.801 107.4 151.101 114 151.101C116.6 151.101 119.9 151.401 122.1 151.601H122.1V148.101C121.917 148.075 121.697 148.042 121.447 148.004C119.789 147.754 116.781 147.301 114 147.301C105.9 147.301 99.8 150.201 99.8 162.501V168.301ZM149.2 166.301V182.901H153.5V147.801H149.2V162.401H131.6V147.801H127.3V182.901H131.6V166.301H149.2ZM160.6 147.801V182.801H181.4V179.001H165V166.601H180.4V162.701H165V151.701H181.4V147.801H160.6ZM225 182.901V151.701H235.9V147.801H209.9V151.701H220.7V182.901H225ZM239.8 147.801V182.801H260.6V179.001H244.2V166.601H259.6V162.701H244.2V151.701H260.6V147.801H239.8ZM270.9 151.701H274.8C281.6 151.701 285 152.701 285.1 158.501C285.1 164.001 281.8 165.401 275 165.401H270.9V151.701ZM278.2 169.201L286.5 182.901V182.801H291.6L282.8 168.201C286.9 166.801 289.4 164.001 289.4 158.401C289.4 149.401 282.9 147.701 274.8 147.701H266.5V182.801H270.8V169.201H274.9H278.2ZM195.2 161.701L201.2 164.301C206.1 166.501 208.5 169.201 208.4 174.101C208.4 180.201 204.5 183.601 196.8 183.601C192.6 183.601 188.1 182.901 186.8 182.601V179.201C189.6 179.501 192.8 179.801 196.8 179.801C201.6 179.801 204 178.201 204 174.101C204 171.301 202.9 169.701 199.2 168.001L193.2 165.301C188.5 163.201 186 160.701 186 155.801C186 150.001 189.8 147.301 197.5 147.301C200.7 147.301 203.9 147.701 205.8 148.001V151.601L205.572 151.58C203.383 151.381 200.308 151.101 197.7 151.101C193.1 151.101 190.5 152.201 190.5 155.801C190.5 158.501 191.5 160.001 195.2 161.701Z" f="black"></path>
</svg>