<svg class="w-32 h-10 | lg:w-36 lg:h-14 text-gray-600 fill-current 4xl:w-40 4xl:h-16 dark:text-white" width="1000" height="822" xmlns="http://www.w3.org/2000/svg" viewBox="0 0 1000 822" f="none">
<path fill-rule="evenodd" clip-rule="evenodd" d="M98.2371 578.341C99.2424 587.407 93.1993 597.986 83.6252 603.023C77.0771 606.046 69.5207 608.062 61.9626 606.046C49.3684 602.017 40.3017 589.926 39.294 576.827C40.8044 573.806 38.2858 568.263 42.8203 566.753L98.2371 578.341ZM957.183 544.587C958.691 557.181 954.154 569.271 943.075 576.325C936.528 579.346 928.467 581.865 920.906 579.851C911.336 576.325 900.252 567.256 899.751 556.678V554.159C919.398 552.143 937.536 547.106 957.183 544.587ZM681.109 175.317L705.288 169.772V192.448L681.61 198.995V255.418L659.447 260.958V158.693L681.109 153.148V175.317ZM530.983 114.863C496.726 107.809 468.01 126.448 445.844 151.64C430.732 169.772 425.187 197.987 434.762 220.156C442.317 234.758 456.927 243.326 471.536 247.858C508.312 253.904 541.561 235.265 561.714 204.534C574.307 185.394 575.822 154.663 561.714 135.517C553.653 124.433 542.569 118.387 530.983 114.863ZM85.1385 764.233L134.507 757.684C134.507 757.684 128.967 753.655 119.395 742.067C109.822 729.976 102.769 707.308 114.358 684.637C125.44 661.966 144.082 648.867 170.78 644.838L801.512 570.279L911.843 611.589V600.003C912.344 595.972 916.876 596.475 919.398 594.459C932.492 593.453 955.668 590.429 956.676 601.009V716.878L1000 721.915V1.5139H880.099L893.705 134.008C893.705 134.008 934.006 525.946 934.507 530.985C935.014 537.533 932.492 540.555 926.952 541.563C921.413 542.571 916.876 541.06 914.86 537.028L893.198 444.837L797.481 407.559L697.232 502.772V503.78C723.927 519.9 777.333 553.654 777.333 553.654L700.249 563.729L656.424 539.549L619.146 573.806C619.146 573.806 567.76 581.362 542.068 582.873C564.231 560.707 589.423 537.533 612.593 515.871C577.831 495.216 542.569 476.074 507.809 455.922C492.191 458.44 475.566 459.951 460.956 463.478C478.59 464.486 493.702 471.034 508.312 478.59C529.976 491.186 551.638 512.847 547.607 540.555C544.584 558.691 531.484 576.827 514.357 586.4C458.94 592.948 403.527 602.52 347.607 606.046C332.998 600.506 316.372 589.926 310.327 573.806C300.754 546.098 315.869 520.405 336.021 501.766C322.418 497.232 307.808 493.202 294.206 488.165V521.916L218.135 535.012V563.226L288.161 552.143V585.895L218.135 595.972V621.664L169.774 627.71V520.405L154.157 514.36L154.659 493.202L798.995 380.859L886.651 416.123L858.943 295.72C838.79 285.142 823.174 278.589 801.512 269.52L758.187 337.028V374.312L724.94 380.859V341.059L705.794 319.397C693.201 316.374 673.555 307.305 661.963 304.789C670.025 307.812 682.117 317.883 684.633 328.466C687.155 341.56 680.602 353.652 670.025 360.706C681.109 368.26 704.286 383.882 704.286 383.882L664.992 390.43L633.248 368.767V396.979L602.016 402.016V334.005L576.323 323.428C576.323 323.428 577.33 365.744 576.323 385.391C574.307 396.979 570.277 405.04 563.223 409.069L520.908 416.628C511.839 416.123 506.801 407.056 504.282 394.965C501.764 376.829 503.275 353.151 502.771 341.059L488.665 337.028V361.213L467.002 365.744V426.198L441.31 430.732V370.783L418.639 375.821L419.144 358.69L405.543 354.159L405.038 437.283L377.329 442.32L343.575 408.566V448.868L317.883 452.898L318.388 380.353L299.747 373.806V392.949L267.506 400.505V416.123L297.228 410.077V425.695L268.011 432.243L268.514 446.853L300.754 440.807V455.922L241.811 467.005V410.077C233.752 407.559 229.723 404.535 208.06 401.008C218.135 403.529 224.181 406.045 227.707 416.628C221.159 421.16 216.119 423.679 209.57 428.214C206.044 423.679 200.504 422.671 194.458 423.176C189.421 425.695 185.892 429.221 183.376 434.259C180.855 439.799 181.862 447.358 183.878 452.898C186.397 458.943 192.947 461.965 199.496 461.965C206.549 460.959 211.081 452.898 214.106 447.86C221.159 450.379 227.204 453.401 233.752 456.424C230.225 464.486 225.693 468.515 219.645 471.034C207.052 474.056 189.421 477.079 176.322 479.093C167.253 474.056 161.21 463.981 158.689 454.411C156.17 439.296 158.186 422.671 170.78 412.093C164.734 409.069 160.705 407.559 154.157 405.04V386.905L657.933 274.564C705.288 263.981 800.504 242.319 800.504 242.319L850.882 264.488L831.235 180.856C831.235 180.856 796.98 166.248 781.865 159.701C790.427 164.233 787.404 209.065 787.911 231.741L765.742 237.28V181.864C765.742 181.864 767.257 177.332 761.711 174.81C755.671 172.294 750.633 178.34 747.61 182.371V241.311L724.94 246.349V139.047C682.117 120.408 639.294 101.262 595.969 83.1238C611.085 96.7245 622.67 113.354 627.708 131.993C641.816 192.948 610.077 247.858 560.2 283.127L465.492 305.29C437.783 304.789 411.082 294.205 392.443 271.535C369.27 242.82 366.248 194.463 380.856 160.202C370.781 155.164 360.201 148.617 350.628 145.087C392.947 212.595 313.35 258.942 278.589 308.819C306.802 301.766 364.23 289.674 364.23 289.674L363.728 328.466L173.801 370.783V348.113L250.883 260.958C269.017 239.797 289.672 220.657 303.779 197.48C305.289 190.426 304.784 182.371 297.733 177.833C291.183 172.294 280.099 173.302 271.535 174.309C254.91 179.348 237.279 193.956 236.774 212.595L174.812 226.703C180.855 183.379 215.616 136.525 258.437 122.924C306.802 102.77 360.703 143.072 384.888 152.647L397.984 130.479C432.243 82.6228 483.122 52.3926 543.576 59.9531C577.831 64.4847 672.541 110.325 725.441 132.494V89.6708L747.61 85.6459L816.12 116.878L790.427 1.5139H187.91L103.274 453.906L85.1385 550.632L81.6116 556.678C79.093 559.196 74.5585 560.202 71.0317 558.692C67.5071 557.181 63.4753 553.151 63.9803 548.617L84.6353 -0.000583627H0.502671L0 777.332L42.3176 770.783V631.739C41.8126 623.175 55.9195 622.169 63.4753 621.664C71.0317 621.161 84.6352 622.169 85.1385 631.739V764.233ZM747.61 91.1852V164.74C747.61 164.74 746.602 162.718 754.157 155.67C762.218 149.118 764.734 149.624 771.287 149.118L829.726 174.81L817.128 122.417L747.61 91.1852ZM801.011 592.445L289.169 647.356L911.843 712.345V633.25L801.011 592.445ZM714.357 290.681L741.057 319.904L751.134 304.282L714.357 290.681ZM549.116 340.051L528.968 333.504C528.968 333.504 528.461 384.89 529.475 389.422C530.983 393.954 535.515 396.979 540.553 395.97C545.091 394.46 548.114 389.928 549.116 385.898V340.051ZM641.816 328.466C635.77 328.967 632.24 329.474 632.24 329.474V349.12C632.24 349.12 640.301 348.614 646.848 346.097C653.401 343.575 653.401 338.543 652.894 335.52C652.894 332.998 650.879 327.458 641.816 328.466ZM342.064 367.759L380.856 410.58V378.844L342.064 367.759ZM592.947 439.799L654.91 477.585L687.656 448.363L592.947 439.799ZM421.157 503.277C396.978 507.809 367.254 518.389 361.208 546.098C361.208 553.151 365.741 558.691 371.286 562.218C400.505 578.341 441.812 573.806 468.515 555.165C478.085 547.608 487.154 537.028 484.633 524.435C471.536 502.269 444.837 503.78 421.157 503.277ZM243.827 656.426C216.624 654.915 174.307 654.915 152.141 669.525C134.507 682.118 123.929 698.744 128.967 720.909C132.493 734.008 145.593 746.602 157.683 753.152C167.758 758.19 178.841 761.716 189.924 765.743C123.929 774.813 66.4971 784.89 0 792.949V820.657L1000 821.16V740.051L243.827 656.426Z" f="black"></path>
</svg>