<svg id="luaytigvhn-Layer_1" class="w-32 h-10 | lg:w-36 lg:h-14 text-gray-600 fill-current 4xl:w-40 4xl:h-16 dark:text-white" xmlns="http://www.w3.org/2000/svg" xmlns:xlink="http://www.w3.org/1999/xlink" version="1.1" x="0px" y="0px" viewBox="0 0 533 292" style="enable-background: new 0 0 533 292;" xml:space="preserve"><style type="text/css">.luaytigvhn-st0{fill-rule:evenodd;clip-rule:evenodd}</style><path class="luaytigvhn-st0" d="M138.1,28.4h218.7v234.5h-2.4H140.6c-2.6,0-2.6,0-2.6-2.6v-0.2c0-76.4,0-152.8,0-229.1c0-0.5,0-1,0.1-1.6v0v0v0  v0v0v0C138.1,29.1,138.1,28.7,138.1,28.4z M292.9,196.1v9.4v9.5c-0.2-0.1-0.4-0.3-0.6-0.4l-0.4-0.3l0,0l0,0  c-0.6-0.4-1.1-0.8-1.6-1.1c-7.5-5.1-17.7-3.3-22.3,4.2c-5.3,8.8-5.7,17.9-0.8,27c5.1,9.5,15.6,11.6,24.3,5.2c0.3-0.2,0.6-0.4,1-0.6  c0.2-0.1,0.4-0.2,0.5-0.3c0.7,3.5,0.7,3.5,4.3,3.5c0,0,0,0,0.1,0h0h0c0,0,0.1,0,0.1,0c1.7,0.2,2.5-0.7,2.6-2.3c0.1-0.7,0.1-1.3,0-2  v0c0-0.1,0-0.3,0-0.4v-38.8c0-0.9,0-1.8,0-2.6v0v0v0c0-2.8,0-5.6-0.1-8.4c0-0.5-0.6-1.5-1-1.5c-1.5-0.1-2.9-0.1-4.5-0.1  C294.1,196.1,293.5,196.1,292.9,196.1z M346.1,233.7c0-0.8,0-1.5,0-2.2c0-1.5,0.1-2.9-0.1-4.3c-0.6-7.5-5.6-13.9-12.5-15.9  c-8.5-2.5-16.2-0.3-21.1,6.3c-4.5,6.1-5.1,13.1-4,20.3c0.9,5.5,3.6,9.9,8.6,12.8c5.5,3.1,11.4,3.7,17.5,1.9  c5.4-1.6,9.2-5.1,10.9-10.6c0.4-1.4,0.1-1.9-1.3-2.2c-3.7-0.8-5.1-0.3-7,3c-1.5,2.6-3.6,4.2-6.4,4.7c-7.6,1.4-14.1-3.6-14.8-11.3  c-0.2-1.7,0.2-2.4,2.1-2.4c4.6,0.1,9.2,0.1,13.9,0.1h0l0,0h0l0,0h0c1.8,0,3.6,0,5.4,0H346.1z M207.3,240.1c0.5,4.7,2.4,8.5,5.5,10.2  c7.3,4.1,14.9,4.7,22.4,0.4c4.8-2.7,6.5-7,5.9-12.2c-0.5-4.7-3.6-7.1-7.8-8.4c-1.5-0.5-3-0.9-4.6-1.4l0,0l0,0l0,0l0,0l0,0h0  c-2.8-0.8-5.7-1.7-8.5-2.6c-1.4-0.5-2.7-1.5-3.8-2.5c-1.6-1.6-1.5-2.8,0-4.4c2.6-2.7,6-3.5,9.6-2.8c3,0.6,4.8,2.9,6.5,5.2l0.1,0.1  c0.4,0.6,1.3,1.2,2,1.1c1.1-0.1,2.2-0.3,3.3-0.5c0.4-0.1,0.9-0.2,1.3-0.3c0.3-4.4-2.9-9-7-9.9c-5.2-1.1-10.4-1.3-15.6-0.5  c-3.5,0.5-6,2.5-7.5,5.7c-2.9,6.6-0.2,12.9,6.6,15.2c2.7,0.9,5.5,1.7,8.3,2.5v0h0c2,0.6,4,1.1,5.9,1.7c1.8,0.6,3.6,1.4,3.8,3.7  c0.2,2.4-0.6,4.4-2.8,5.5c-5.5,2.9-11.9,2.6-15.7-3.8c-0.1-0.2-0.2-0.4-0.3-0.6c-0.2-0.5-0.5-0.9-0.8-1.3c-0.3-0.4-0.8-0.9-1.2-0.9  c-1.4,0.1-2.7,0.3-4.1,0.5h0v0h0h0h0l0,0h0h0l0,0C208.3,239.9,207.8,240,207.3,240.1z M166.1,211.7v2.3v33c0,2.5,0,3.8,0.6,4.4  c0.6,0.6,1.8,0.6,4.3,0.7l0.2,0c1.5,0,1.8-0.5,1.8-1.8l0-0.7c0-5.3-0.1-10.6,0.1-15.8c0.1-3.3,0.3-6.6,0.9-9.8  c1-4.9,5.4-7.9,10.4-7.5c5,0.4,7.3,3.1,7.6,8.9c0,0.5,0,1.1,0,1.6c0,2.3,0,4.6,0,6.9c0,4.6,0,9.2,0.1,13.8c0,0.8,0,1.4,0,2  c0,1.2,0,1.8,0.3,2.2c0.3,0.3,1,0.3,2.3,0.3h0h0h0h0c0.6,0,1.2,0,2.1,0c1.6,0,2.2-0.5,2.2-2.2c-0.1-4.5-0.1-9-0.1-13.5v0v0v0v0l0,0  v0c0-5.4-0.1-10.8-0.2-16.2c-0.1-3.8-2-6.6-5.4-8.1c-6.7-2.8-13.1-2.5-18.9,2.3l-0.8,0.7l-0.4,0.3l-0.6,0.5  C171.6,211,171.6,211,166.1,211.7z M249.9,252.2c0.5,0,1.1,0,1.6,0h0c1.1,0,2.1,0,3.1,0c1.3,0.1,1.7-0.5,1.7-1.8c0-4.1,0-8.3,0-12.4  v0v0c0-1.2,0-2.5,0-3.7c0-1.2,0-2.3,0-3.5l0,0c0-5.8,0-11.6,0-17.4c0-0.6-0.5-1.8-0.8-1.8c-1.4-0.1-2.7-0.1-4.1-0.1  c-0.5,0-0.9,0-1.4,0V252.2z M148.8,211.6V252h6.2v-40.3H148.8z M256.2,203.4c0-0.8,0-1.5,0-2.1v0l0,0l0,0v0l0,0c0-1.4,0-2.7,0-4  c0.1-1.6-1.1-1.7-2-1.4c-0.5,0.2-1.2,0-1.8-0.1c-1.2-0.3-2.4-0.5-2.8,1.4c-0.3,1.3-0.2,2.7-0.1,4.1c0,0.2,0,0.3,0,0.5l0,0.1l0,0.1  c0,0.5,0.5,1.2,0.8,1.3c1.4,0.1,2.8,0.1,4.3,0.1C255.2,203.4,255.7,203.4,256.2,203.4z M155.3,203.2v-6.9h-6.4v6.9H155.3z   M94.7,262.8H51.9V28.7c0.2,0,0.5,0,0.7,0l0,0c0.5,0,0.9-0.1,1.3-0.1c3.9,0,7.7,0,11.6,0h0c9,0,18,0,27.1,0c1.8,0,2.3,0.5,2.3,2.3  c0,63.9,0,127.7,0,191.6v0v0v0v0c0,12.8,0,25.5,0,38.3c0,0.5,0,0.9-0.1,1.5C94.7,262.4,94.7,262.6,94.7,262.8z M408.3,246.6  c3.5-4.3,4-9.5,4.2-15.7c0-0.2,0-0.3,0-0.5c0-0.1,0-0.3,0-0.5v0v0c-0.1-1-0.2-2.4-0.4-3.8c-1.5-9.2-8-15.1-17.7-16.2  c-7.8-0.9-15.4,4.2-18.6,12.2c-1.8,4.6-2,9.4-1.5,14.3c0.8,7.8,5.8,14.2,12.8,16.2C394.5,255,403.7,252.3,408.3,246.6z M381.9,233.6  L381.9,233.6L381.9,233.6c-0.1-0.7-0.1-1.5-0.2-2.2c0.1-0.7,0.1-1.4,0.2-2.1l0,0c0.1-1.6,0.2-3.1,0.5-4.6c0.8-4.5,4.8-7.9,9.7-8.3  c5.1-0.5,9.6,2.2,11.5,7c2.2,5.7,2.1,11.4-0.1,17.1c-1.8,4.7-6.6,7.4-11.6,6.8c-5.3-0.6-8.4-3.5-9.3-9  C382.3,236.8,382.1,235.2,381.9,233.6L381.9,233.6z M447,211.6h6.7c0,0.2,0,0.3,0,0.5l0,0.2c0,0.5,0.1,1,0.1,1.5c0,3.8,0,7.6,0,11.4  v0.1c0,8.3,0,16.5,0,24.8c0,1.7-0.5,2.4-2.1,2.2c0,0-0.1,0-0.1,0c0,0,0,0,0,0c0,0,0,0,0,0c-3.3,0.1-3.3,0.1-3.9-3.2  c0-0.3-0.1-0.5-0.2-0.8c0-0.1-0.1-0.2-0.2-0.4c-0.4,0.3-0.9,0.6-1.3,0.9c-0.9,0.7-1.8,1.4-2.8,2c-5.9,3.7-11.8,3.4-17.7,0.1  c-3-1.7-4.9-4.4-5-7.8c-0.2-7.5-0.2-15-0.2-22.5c0-2.8,0-5.5,0-8.3c0-0.1,0-0.2,0.1-0.4c0-0.1,0.1-0.3,0.2-0.4c0.5,0,0.9,0,1.4,0  l0,0h0l0,0c1.1,0,2.3,0,3.5,0c1.4,0,1.8,0.5,1.8,1.9c-0.1,7.3,0,14.6,0,21.9v0c0,1.5,0,3,0.3,4.4c1.2,6.9,7.7,9.8,13.8,6.2  c3.8-2.3,5.1-5.9,5.2-10c0.2-5.2,0.2-10.3,0.3-15.5c0-2.2,0.1-4.3,0.1-6.5c0-0.5,0-0.9,0-1.4v0v0v0c0-0.2,0-0.4,0-0.6V211.6z   M477.7,216.6c0.5,0,1-0.1,1.6-0.1c0-0.4,0-0.8,0-1.1c0-0.9,0-1.7,0-2.6c0.1-1.3-0.4-1.8-1.7-1.8c-1.1,0-2.3,0-3.5,0h0l0,0  c-0.6,0-1.1,0-1.7,0v-13c-4.2,0.1-6.5,2.2-6.8,6.1c-0.1,1.6-0.2,3.2-0.2,4.8v0l0,0l0,0c0,0.7-0.1,1.3-0.1,2  c-1.3,0.2-2.4,0.3-3.5,0.5l-0.3,0c-0.3,0-0.7,0.1-1,0.2c0,0.4,0,0.7,0,1v0c0,0.7,0,1.2,0,1.8c-0.2,1.8,0.6,2.3,2.3,2.4  c2.8,0,2.8,0.1,2.8,2.9v0c0,0.9,0,1.7,0,2.6l0,3c0,6.6,0,13.1,0.1,19.7c0,2.7,0.6,5.4,3.3,6.6c2.6,1.2,5.3,1.1,8.1,1.1  c1.1,0,2.3,0,3.4,0c-0.1-0.5-0.2-0.9-0.3-1.3l0,0v0c-0.2-0.8-0.4-1.5-0.4-2.2c0-2.4-1.1-3.3-3.5-3.5c-3.1-0.2-3.8-0.9-3.8-4  c-0.1-4.6-0.1-9.1-0.1-13.7c0-3.2,0-6.4,0-9.6c0-1.1,0.5-1.6,1.5-1.6C475.2,216.8,476.4,216.7,477.7,216.6L477.7,216.6L477.7,216.6z   M270.8,231.8c0.3-1.1,0.6-2.1,0.8-3.2v0c0.6-2.4,1.2-4.7,2-6.9c1.4-3.4,4.3-5.2,8-5.4c4-0.2,7.4,1.1,9.3,4.8  c3.4,6.7,3.8,13.6,0.8,20.5c-1.8,4-5.1,5.8-9.3,5.7c-4.1,0-7.2-2-8.7-5.7c-0.9-2.1-1.5-4.4-2.1-6.7h0  C271.3,233.9,271.1,232.9,270.8,231.8z M325.3,216.5c-5.4,0.9-9.6,5.9-9,10.8c0,0,0.1,0,0.1,0.1c0.1,0,0.2,0.1,0.2,0.1  c2.6,0,5.2,0.1,7.8,0.1c4.3,0,8.6,0.1,12.9,0.2c1.6,0,1.4-0.9,1.2-1.8c0-0.1,0-0.1,0-0.2C337.4,219,332.1,215.4,325.3,216.5z"></path>
</svg>