<svg class="w-32 h-10 | lg:w-36 lg:h-14 text-gray-600 fill-current 4xl:w-40 4xl:h-16 dark:text-white" width="617" height="133" xmlns="http://www.w3.org/2000/svg" viewBox="0 0 617 133" f="none">
<path d="M568.682 72.4432C568.682 83.3962 567.749 83.7122 562.89 84.2237L559.076 84.6375C558.339 85.3672 558.444 87.2177 559.279 87.6315C563.92 87.4208 570.232 87.3231 574.783 87.3231H586.564C598.66 87.3231 607.544 87.4208 612.081 87.6315C613.532 84.8406 615.804 76.9945 616.429 72.6464C615.804 71.6082 614.051 71.3073 613.119 72.022C609.5 80.4022 607.236 83.3962 594.101 83.1856C585.42 83.1856 583.667 82.3581 582.419 80.9213C580.884 79.161 580.673 75.4373 580.673 70.1639V57.0444C580.673 54.4641 580.771 54.2534 583.148 54.2534H588.113C597.103 54.2534 598.863 54.4641 599.593 58.7971L600.307 62.9346C601.143 63.5514 603.083 63.5515 603.61 62.8368C603.505 59.5268 603.302 55.9009 603.302 51.9891C603.302 48.1525 603.505 44.4288 603.61 41.6379C603.083 40.818 601.143 40.818 600.307 41.5476L599.593 45.0532C598.863 49.5066 597.103 49.6044 588.113 49.6044H583.148C580.771 49.6044 580.673 49.5066 580.673 46.8135V29.3383C580.673 23.4556 580.673 23.245 585.112 23.245H592.04C594.831 23.245 597.923 23.4556 600.307 24.1778C603.61 25.0053 605.16 27.5855 606.815 33.5811C607.642 34.2055 609.696 34.0024 610.117 33.1674C609.5 28.729 608.883 20.5669 608.47 18.8066C607.131 19.0097 601.143 19.1151 594.515 19.1151H574.783C570.232 19.1151 565.38 19.0097 561.445 18.8066C560.618 19.2128 560.513 21.0784 561.235 21.8006L562.89 22.0038C567.749 22.7259 568.682 23.0419 568.682 34.0024V72.4432ZM545.762 45.0547C545.762 36.8926 545.762 27.903 547.214 24.6984C547.936 23.0434 549.689 22.6221 551.637 22.3212L554.037 21.8022C554.857 21.0725 554.646 19.3272 553.826 18.8081C550.11 19.0037 547.417 19.1091 542.971 19.1091C538.939 19.1091 535.11 19.0038 531.093 18.8081C530.055 19.109 529.95 21.0725 530.882 21.8022L533.26 22.1106C535.847 22.5168 537.495 23.1412 538.42 24.6984C540.286 27.7977 540.391 37.2989 540.391 45.0547V65.2079C540.391 66.8554 540.391 67.382 540.083 67.6904C539.044 67.0661 529.431 56.1055 525.097 51.3587L514.754 40.2026C511.135 36.2758 499.874 23.2465 498.121 18.8081C495.631 19.0037 493.164 19.1091 490.99 19.1091C488.402 19.1091 482.722 19.2143 478.795 18.8081C477.765 19.109 477.66 21.1853 478.374 21.8022L479.924 22.1106C481.383 22.4265 484.272 23.2465 485.415 24.1718C488.921 27.1734 488.816 28.8283 488.816 36.8926V61.3864C488.816 69.5485 488.816 78.5456 487.477 81.7427C486.754 83.3977 484.896 83.8115 482.925 84.1124L480.654 84.639C479.826 85.3612 480.029 87.1139 480.857 87.633C484.468 87.4224 487.273 87.3171 491.614 87.3171C495.541 87.3171 499.581 87.4223 503.395 87.633C504.425 87.317 504.53 85.3612 503.598 84.639L501.318 84.3306C498.746 83.9168 496.985 83.2924 496.052 81.7427C494.3 78.6434 494.194 69.1348 494.194 61.3864V41.2332C494.194 35.7492 494.194 34.6208 494.503 34.6208C496.256 36.1705 499.581 40.0973 506.283 47.6425L530.469 75.2357C537.909 83.7137 540.91 87.2193 542.558 89.3933C543.806 89.4986 545.251 89.0849 546.071 87.949C545.762 85.5643 545.762 72.8585 545.762 69.7516V45.0547ZM446.255 62.0056C449.144 62.0056 449.46 62.0056 450.491 64.7889L455.35 78.8488C456.697 83.2947 456.388 83.919 452.657 84.3253L450.393 84.6337C449.769 85.2581 449.874 87.1162 450.701 87.6353C454.32 87.5375 458.863 87.3193 463.309 87.3193C468.673 87.3193 472.502 87.4246 476.745 87.6353C477.459 87.1162 477.459 85.3634 476.64 84.6337L475.09 84.3253C469.824 83.4 469.297 82.6703 466.92 75.7495L452.04 32.4565C450.393 27.8 449.046 22.9404 447.399 18.2914C446.97 17.7723 446.459 17.4638 445.631 17.4638C445.428 17.4638 442.02 21.6991 438.402 22.4213C438.71 24.1741 437.777 26.649 436.431 29.9665L422.273 66.7599C420.114 72.3342 418.452 76.6822 417.21 79.3603C415.668 82.7681 414.532 83.7084 411.531 84.1146L408.432 84.6337C407.709 85.5665 407.807 87.1162 408.537 87.6353C412.148 87.4246 415.36 87.3193 418.76 87.3193C423.003 87.4245 426.418 87.4246 429.713 87.6353C430.548 87.2215 430.661 85.3634 429.924 84.6337L426.93 84.1146C423.101 83.6031 422.687 83.2947 424.763 77.1938L428.991 64.7889C429.924 62.0056 429.819 62.0056 432.512 62.0056H446.255ZM434.167 57.349C431.684 57.349 431.376 57.349 432.512 54.3625L436.86 42.2585C438.71 37.4064 439.538 34.8262 439.944 34.0965H440.162C440.666 34.8262 441.306 36.782 443.051 42.2585L447.399 54.671C448.226 57.1459 447.798 57.349 444.909 57.349H434.167ZM379.731 72.4432C379.731 83.3962 378.806 83.7122 373.939 84.1184L369.613 84.6375C368.868 85.1565 368.981 87.2177 369.816 87.6315C376.414 87.4208 381.273 87.3231 385.832 87.3231C390.376 87.3231 395.025 87.4208 401.02 87.6315C401.848 87.2177 401.953 85.3672 401.223 84.6375L397.507 84.2237C392.655 83.7122 391.722 83.3962 391.722 72.4432V27.7962C391.722 23.4557 391.827 23.245 394.506 23.245H400.396C411.462 23.245 413.425 25.216 414.764 33.2727C415.697 34.0024 417.457 33.7918 417.976 32.9643C417.66 29.6543 418.488 20.7701 419.526 16.5273C419.308 16.2188 418.796 16.0157 418.179 16.0157C417.773 16.0157 417.337 16.2189 416.931 16.422C415.697 18.8067 414.147 19.1151 409.084 19.1151H366.912C359.894 19.1151 358.434 19.0097 357.93 16.422C357.72 16.1211 357.313 16.0157 356.885 16.0157C356.373 16.0157 355.959 16.121 355.749 16.422C355.027 20.0404 353.477 26.4497 351.717 32.0315C352.13 33.0621 354.297 33.378 355.027 32.7537C358.863 24.3885 361.647 23.245 371.155 23.245H376.933C379.626 23.245 379.731 23.4557 379.731 27.7962V72.4432ZM337.515 34.0017C337.515 23.0412 338.447 22.7252 343.299 22.1083L345.579 21.7999C346.309 21.0777 346.196 19.2196 345.368 18.8059C340.825 19.009 336.168 19.1143 331.617 19.1143C326.862 19.1143 322.229 19.0091 317.677 18.8059C316.835 19.2196 316.744 21.0777 317.459 21.7999L319.746 22.1083C324.598 22.7252 325.523 23.0412 325.523 34.0017V72.4425C325.523 83.3955 324.598 83.7114 319.746 84.3283L317.459 84.6367C316.744 85.3664 316.835 87.217 317.677 87.6307C322.229 87.4276 327.081 87.3223 331.617 87.3223C336.168 87.3223 340.825 87.4276 345.368 87.6307C346.196 87.217 346.309 85.3664 345.579 84.6367L343.299 84.3283C338.447 83.7114 337.515 83.3955 337.515 72.4425V34.0017ZM308.203 20.351C307.262 20.1479 306.548 20.0426 305.306 19.7267C300.454 18.493 293.323 17.4699 287.425 17.4699C276.991 17.4699 266.542 20.4564 258.899 26.2413C251.248 32.1315 245.877 41.5424 245.877 53.6313C245.877 67.1721 252.174 76.583 260.554 82.0444C267.994 86.9041 276.78 88.9803 287.004 88.9803C293.729 88.9803 300.86 87.22 303.132 86.4903C304.268 86.1819 305.509 85.7756 306.751 85.565C308.203 83.6016 310.986 76.7785 311.716 69.8577C311.197 68.9249 309.534 68.5187 308.609 69.444C305.72 76.1692 300.025 84.8428 287.004 84.8428C273.681 84.8428 259.937 74.0855 259.937 52.0817C259.937 30.8903 273.169 21.5923 286.281 21.5923C299.935 21.5923 304.577 30.1681 306.344 36.6827C307.059 37.4124 308.917 37.2996 309.632 36.4796C308.609 28.8291 308.406 22.7282 308.203 20.351ZM236.504 20.351C235.579 20.1479 234.849 20.0426 233.608 19.7267C228.756 18.493 221.624 17.4699 215.734 17.4699C205.3 17.4699 194.859 20.4564 187.216 26.2413C179.557 32.1315 174.186 41.5424 174.186 53.6313C174.186 67.1721 180.49 76.583 188.863 82.0444C196.303 86.9041 205.089 88.9803 215.328 88.9803C222.038 88.9803 229.169 87.22 231.441 86.4903C232.585 86.1819 233.818 85.7756 235.067 85.565C236.504 83.6016 239.287 76.7785 240.017 69.8577C239.498 68.9249 237.851 68.5187 236.91 69.444C234.029 76.1692 228.342 84.8428 215.328 84.8428C201.983 84.8428 188.246 74.0855 188.246 52.0817C188.246 30.8903 201.471 21.5923 214.598 21.5923C228.237 21.5923 232.893 30.1681 234.646 36.6827C235.361 37.4124 237.226 37.2996 237.956 36.4796C236.91 28.8291 236.722 22.7282 236.504 20.351ZM120.711 89.3918C145.648 89.3918 165.538 70.3971 165.538 44.3085C165.538 21.575 150.561 0 120.711 0C94.103 0 74.7247 19.762 74.7247 45.5948C74.7247 68.8474 92.0418 89.3918 120.711 89.3918ZM122.388 85.3822C96.9541 85.3822 87.6486 60.58 87.6486 41.4724C87.6486 13.1797 105.094 4.00955 118.522 4.00955C143.196 4.00955 152.622 26.9913 152.622 48.3105C152.622 73.7597 137.892 85.3822 122.388 85.3822ZM53.8387 14.9769C49.1897 14.9769 47.9485 18.0837 47.9485 19.8365C47.9485 22.1083 49.5959 23.3496 51.1531 23.5527C53.6281 23.8687 56.735 25.5236 56.735 28.9239C56.735 33.4751 52.8006 36.4841 48.3547 38.3347C48.0463 39.1697 48.257 40.4035 49.0919 41.0278C56.2159 39.2675 63.2421 33.4751 63.2421 25.6214C63.2421 19.9493 58.9015 14.9769 53.8387 14.9769ZM21.4469 34.0017C21.4469 23.2443 22.3797 22.9358 27.2318 22.2137L29.5112 21.7999C30.3312 21.2808 30.2334 19.2196 29.3081 18.8059C24.7644 19.009 20.1003 19.1143 15.5642 19.1143C10.8023 19.1143 6.1458 19.0091 0.985265 18.8059C0.0599775 19.2196 0.0599798 21.2808 0.782155 21.7999L3.67085 22.2137C8.53049 22.9358 9.4633 23.2443 9.4633 34.0017V72.4425C9.4633 83.1849 8.53049 83.4933 3.67085 84.1177L0.563988 84.6367C-0.368824 85.1558 -0.0378202 87.217 0.782155 87.6307C5.12273 87.4276 10.2833 87.3223 15.5642 87.3223H26.3141C37.8764 87.3223 46.7682 87.4276 51.1088 87.6307C52.3425 84.8398 54.6294 76.9937 55.4493 72.6456C54.9378 71.8181 53.2828 71.5096 52.2522 72.0212C47.4828 82.6733 45.8354 83.1849 34.3633 83.1849C26.1034 83.1849 24.4409 82.3649 23.2072 80.9205C21.6651 79.1602 21.4469 75.4365 21.4469 70.2759V34.0017ZM484.939 126.891C484.939 130.795 484.601 130.9 482.87 131.081L481.509 131.224C481.261 131.487 481.283 132.157 481.584 132.3C483.232 132.224 485.481 132.179 487.098 132.179H491.296C495.599 132.179 498.766 132.224 500.383 132.3C500.895 131.307 501.707 128.508 501.925 126.958C501.707 126.597 501.075 126.492 500.752 126.74C499.473 129.719 498.646 130.795 493.982 130.712C490.897 130.712 490.265 130.419 489.829 129.907C489.272 129.275 489.19 127.951 489.19 126.078V121.407C489.19 120.489 489.235 120.421 490.085 120.421H491.845C495.042 120.421 495.659 120.489 495.93 122.039L496.193 123.506C496.479 123.731 497.179 123.731 497.359 123.468C497.322 122.287 497.246 121.001 497.246 119.601C497.246 118.24 497.322 116.923 497.359 115.923C497.179 115.629 496.479 115.629 496.193 115.885L495.93 117.141C495.659 118.721 495.042 118.759 491.845 118.759H490.085C489.235 118.759 489.19 118.721 489.19 117.766V111.545C489.19 109.446 489.19 109.378 490.784 109.378H493.244C494.237 109.378 495.343 109.446 496.193 109.717C497.359 110.01 497.916 110.928 498.503 113.064C498.796 113.275 499.541 113.2 499.676 112.906C499.473 111.326 499.24 108.423 499.097 107.798C498.623 107.873 496.479 107.911 494.124 107.911H487.098C485.481 107.911 483.758 107.874 482.352 107.798C482.058 107.941 482.02 108.603 482.276 108.867L482.87 108.942C484.601 109.197 484.939 109.31 484.939 113.2V126.891ZM465.231 108.356C464.893 108.28 464.63 108.243 464.193 108.13C462.478 107.686 459.92 107.318 457.829 107.318C454.12 107.318 450.404 108.378 447.666 110.447C444.958 112.546 443.047 115.886 443.047 120.189C443.047 125.011 445.289 128.358 448.268 130.307C450.916 132.037 454.038 132.774 457.679 132.774C460.071 132.774 462.606 132.15 463.426 131.902C463.832 131.774 464.268 131.631 464.705 131.556C465.231 130.863 466.224 128.434 466.48 125.974C466.292 125.635 465.705 125.492 465.374 125.823C464.336 128.216 462.32 131.307 457.679 131.307C452.932 131.307 448.05 127.478 448.05 119.647C448.05 112.102 452.759 108.792 457.423 108.792C462.282 108.792 463.93 111.839 464.569 114.163C464.818 114.411 465.48 114.381 465.735 114.088C465.374 111.372 465.299 109.198 465.231 108.356ZM423.885 117.144C423.885 114.233 423.885 111.029 424.404 109.9C424.668 109.313 425.284 109.155 425.999 109.05L426.827 108.87C427.128 108.599 427.052 107.982 426.759 107.801C425.427 107.869 424.472 107.914 422.907 107.914C421.463 107.914 420.109 107.869 418.665 107.801C418.288 107.914 418.258 108.599 418.597 108.87L419.447 108.975C420.357 109.125 420.951 109.343 421.275 109.9C421.944 110.998 421.975 114.384 421.975 117.144V124.313C421.975 124.908 421.975 125.081 421.862 125.201C421.508 124.975 418.085 121.079 416.543 119.386L412.857 115.407C411.563 114.015 407.561 109.373 406.929 107.801C406.041 107.869 405.169 107.914 404.394 107.914C403.469 107.914 401.453 107.937 400.053 107.801C399.685 107.914 399.662 108.644 399.903 108.869L400.467 108.975C400.971 109.088 402.009 109.373 402.408 109.712C403.657 110.773 403.619 111.367 403.619 114.233V122.952C403.619 125.863 403.619 129.053 403.145 130.204C402.889 130.79 402.227 130.941 401.528 131.031L400.723 131.227C400.422 131.483 400.497 132.114 400.791 132.302C402.07 132.227 403.078 132.182 404.62 132.182C406.011 132.182 407.448 132.227 408.817 132.302C409.171 132.182 409.216 131.483 408.885 131.227L408.08 131.114C407.155 130.971 406.523 130.745 406.2 130.204C405.575 129.09 405.538 125.705 405.538 122.952V115.775C405.538 113.834 405.538 113.428 405.635 113.428C406.275 113.985 407.448 115.376 409.833 118.062L418.439 127.879C421.094 130.896 422.17 132.152 422.742 132.927C423.193 132.957 423.712 132.806 424.006 132.4C423.885 131.558 423.885 127.037 423.885 125.931L423.885 117.144ZM368.793 126.891C368.793 130.795 368.47 130.9 366.739 131.081L365.378 131.224C365.122 131.487 365.152 132.157 365.446 132.3C367.108 132.224 369.342 132.179 370.967 132.179H375.165C379.468 132.179 382.627 132.224 384.245 132.3C384.764 131.307 385.569 128.508 385.794 126.958C385.569 126.597 384.944 126.492 384.613 126.74C383.319 129.719 382.522 130.795 377.843 130.712C374.759 130.712 374.119 130.419 373.698 129.907C373.134 129.276 373.066 127.952 373.066 126.078V121.407C373.066 120.489 373.096 120.421 373.954 120.421H375.714C378.919 120.421 379.543 120.489 379.791 122.039L380.055 123.506C380.356 123.731 381.048 123.731 381.228 123.468C381.191 122.287 381.115 121.001 381.115 119.601C381.115 118.24 381.19 116.923 381.228 115.923C381.048 115.629 380.356 115.629 380.055 115.885L379.791 117.141C379.543 118.721 378.919 118.759 375.714 118.759H373.954C373.096 118.759 373.066 118.721 373.066 117.766V111.545C373.066 109.446 373.066 109.378 374.653 109.378H377.113C378.106 109.378 379.205 109.446 380.055 109.717C381.228 110.01 381.777 110.928 382.372 113.064C382.665 113.275 383.402 113.2 383.545 112.906C383.319 111.326 383.109 108.423 382.958 107.798C382.477 107.874 380.356 107.911 377.986 107.911H370.967C369.342 107.911 367.62 107.874 366.22 107.798C365.92 107.941 365.897 108.603 366.145 108.867L366.74 108.942C368.47 109.198 368.793 109.31 368.793 113.2L368.793 126.891ZM345.565 118.502C347.212 114.786 348.273 112.319 349.318 110.558C349.935 109.49 350.74 109.227 351.59 109.054L352.523 108.866C352.696 108.572 352.726 107.978 352.433 107.798C351.41 107.873 350.199 107.91 348.867 107.91C347.693 107.91 346.445 107.873 344.933 107.798C344.639 107.978 344.609 108.572 344.857 108.866L345.933 109.122C347.031 109.377 347.137 109.671 346.557 111.145C344.609 116.148 342.39 121.225 340.411 125.859C340.043 125.009 339.05 122.843 338.38 121.188L335.732 114.636C334.22 110.882 333.942 110.077 333.942 109.738C333.942 109.445 334.22 109.272 335.033 109.091L335.958 108.866C336.297 108.602 336.244 108.016 335.92 107.798C333.972 107.873 332.723 107.91 331.061 107.91C329.624 107.91 328.052 107.873 326.607 107.798C326.246 107.91 326.246 108.572 326.51 108.828L327.39 109.009C328.864 109.31 329.188 109.821 330.218 112.281L336.658 127.778C337.32 129.312 337.914 131.118 338.35 132.585C338.531 132.698 338.779 132.773 339.05 132.773C339.298 132.773 339.599 132.697 339.667 132.585C340.299 130.712 342.029 126.409 343.503 123.069L345.565 118.502ZM299.9 107.32C292.189 107.32 286.728 112.872 286.728 120.379C286.728 126.924 291.504 132.777 299.832 132.777C307.257 132.777 312.786 127.368 312.786 120.123C312.786 113.428 308.408 107.32 299.9 107.32ZM299.433 108.794C305.278 108.794 307.784 115.226 307.784 120.785C307.784 128.18 304.383 131.302 300.201 131.302C293.912 131.302 291.738 124.389 291.738 119.303C291.738 111.472 295.747 108.794 299.433 108.794ZM253.243 126.891C253.243 130.795 252.912 130.9 251.181 131.111L250.377 131.224C250.038 131.487 250.151 132.157 250.452 132.3C252.144 132.224 253.792 132.179 255.417 132.179C257.034 132.179 258.689 132.224 260.307 132.3C260.6 132.157 260.638 131.487 260.382 131.224L259.569 131.111C257.847 130.9 257.516 130.795 257.516 126.891V122.182C257.516 121.407 257.538 121.362 258.652 121.362C259.863 121.362 260.269 121.527 260.931 122.625C261.819 124.062 262.849 126.078 263.835 127.62C266.084 131.036 267.995 132.473 271.53 132.473C272.817 132.473 273.509 132.367 273.945 132.254C274.065 132.074 274.065 131.675 273.885 131.517C273.434 131.487 272.365 131.269 271.342 130.381C269.62 128.952 267.769 125.823 264.828 120.865C264.685 120.639 264.602 120.339 264.828 120.233C266.633 119.496 269.236 117.796 269.236 114.411C269.236 111.77 267.889 110.04 266.001 109.055C264.391 108.167 261.886 107.798 259.02 107.798C255.989 107.798 252.867 107.911 250.565 108.129C250.264 108.31 250.264 108.897 250.535 109.16L251.475 109.273C253.213 109.446 253.243 109.897 253.243 113.425L253.243 126.891ZM257.516 111.071C257.516 109.378 257.538 109.273 259.464 109.273C262.661 109.273 264.534 111.8 264.534 114.712C264.534 118.21 262.887 119.977 259.268 119.977C257.516 119.977 257.516 119.895 257.516 118.721V111.071ZM218.085 126.891C218.085 130.795 217.746 130.9 216.016 131.156L215.437 131.224C215.174 131.487 215.211 132.157 215.497 132.3C216.971 132.224 218.634 132.179 220.251 132.179C221.876 132.179 223.524 132.224 225.698 132.3C225.961 132.157 225.984 131.487 225.773 131.224L224.404 131.081C222.681 130.901 222.358 130.795 222.358 126.891V110.807C222.358 109.378 222.388 109.273 224.223 109.273C227.571 109.273 229.482 111.883 229.482 114.862C229.482 117.879 228.27 120.309 224.915 120.971C224.735 121.189 224.78 121.663 225.036 121.896C225.322 121.926 225.615 121.926 225.961 121.926C228.865 121.926 234.191 120.376 234.191 114.787C234.191 112.35 232.972 110.409 231.061 109.273C229.406 108.31 226.871 107.798 223.373 107.798C220.033 107.798 217.822 107.836 215.249 108.129C214.955 108.28 214.955 108.897 215.211 109.16L216.505 109.31C218.04 109.521 218.085 110.078 218.085 113.425L218.085 126.891ZM173.186 117.144C173.186 114.233 173.186 111.029 173.705 109.9C173.968 109.313 174.577 109.155 175.285 109.05L176.135 108.87C176.421 108.599 176.353 107.982 176.052 107.801C174.735 107.869 173.772 107.914 172.193 107.914C170.763 107.914 169.402 107.869 167.965 107.801C167.596 107.914 167.559 108.599 167.882 108.87L168.732 108.975C169.658 109.125 170.252 109.343 170.575 109.9C171.237 110.998 171.275 114.384 171.275 117.144V124.313C171.275 124.908 171.275 125.081 171.155 125.201C170.793 124.975 167.371 121.079 165.828 119.386L162.157 115.407C160.864 114.015 156.854 109.373 156.23 107.801C155.357 107.869 154.477 107.914 153.694 107.914C152.769 107.914 150.753 107.937 149.346 107.801C148.985 107.914 148.955 108.644 149.211 108.869L149.768 108.975C150.279 109.088 151.302 109.373 151.708 109.712C152.957 110.773 152.92 111.367 152.92 114.233V122.952C152.92 125.863 152.92 129.053 152.446 130.204C152.182 130.79 151.528 130.941 150.821 131.031L150.008 131.227C149.722 131.483 149.79 132.114 150.091 132.302C151.378 132.227 152.371 132.182 153.92 132.182C155.319 132.182 156.749 132.227 158.11 132.302C158.471 132.182 158.517 131.483 158.186 131.227L157.373 131.114C156.455 130.971 155.831 130.745 155.5 130.204C154.868 129.09 154.83 125.705 154.83 122.952V115.775C154.83 113.834 154.83 113.428 154.936 113.428C155.568 113.985 156.749 115.376 159.141 118.062L167.747 127.879C170.395 130.896 171.463 132.152 172.042 132.927C172.494 132.957 173.013 132.806 173.291 132.4C173.186 131.558 173.186 127.037 173.186 125.931L173.186 117.144ZM118.1 126.891C118.1 130.795 117.769 130.9 116.038 131.081L114.669 131.224C114.413 131.487 114.451 132.157 114.752 132.3C116.407 132.224 118.649 132.179 120.266 132.179H124.464C128.774 132.179 131.934 132.224 133.544 132.3C134.07 131.307 134.875 128.508 135.093 126.958C134.875 126.597 134.243 126.492 133.912 126.74C132.626 129.719 131.821 130.795 127.149 130.712C124.058 130.712 123.426 130.419 122.989 129.907C122.433 129.276 122.372 127.952 122.372 126.078V121.407C122.372 120.489 122.403 120.421 123.253 120.421H125.013C128.218 120.421 128.842 120.489 129.105 122.039L129.354 123.506C129.654 123.731 130.339 123.731 130.527 123.468C130.489 122.287 130.422 121.001 130.422 119.601C130.422 118.24 130.49 116.923 130.527 115.923C130.339 115.629 129.654 115.629 129.354 115.885L129.105 117.141C128.842 118.721 128.218 118.759 125.013 118.759H123.253C122.403 118.759 122.372 118.721 122.372 117.766V111.545C122.372 109.446 122.373 109.378 123.952 109.378H126.412C127.398 109.378 128.511 109.446 129.354 109.717C130.527 110.01 131.084 110.928 131.663 113.064C131.964 113.275 132.709 113.2 132.844 112.906C132.626 111.326 132.408 108.423 132.257 107.798C131.783 107.874 129.654 107.911 127.3 107.911H120.266C118.649 107.911 116.919 107.874 115.519 107.798C115.226 107.941 115.188 108.603 115.452 108.867L116.038 108.942C117.769 109.198 118.1 109.31 118.1 113.2L118.1 126.891Z" f="black"></path>
</svg>