<svg className="w-32 h-10 | lg:w-36 lg:h-14 text-gray-600 fill-current 4xl:w-40 4xl:h-16 dark:text-white" width="230" height="41" xmlns="http://www.w3.org/2000/svg" viewBox="0 0 230 41" f="none">
<path fill-rule="evenodd" clip-rule="evenodd" d="M8.24001 0C11.493 0 12.267 1.6 12.267 2.864C12.267 4.658 11.106 6.588 7.02901 6.588H1.80701L3.23101 0H8.24001ZM134.92 11.7273L125.998 19.7613L129.005 5.86328H123.989L118.294 32.2303H123.306L124.691 25.8233L127.775 23.3683L132.039 32.2303H137.619L131.568 20.3613L141.867 11.7273H134.92ZM71.495 24.4083C71.222 25.6403 71.14 26.2263 71.14 26.5363C71.14 27.5693 71.718 28.3553 73.569 28.3543C74.1853 28.3543 74.7193 28.316 74.8547 28.3062L74.867 28.3053C74.829 28.4623 74.048 32.0493 73.966 32.4673C73.9337 32.4716 73.8868 32.4786 73.8273 32.4876C73.4911 32.5382 72.7527 32.6493 71.966 32.6493C69.379 32.6493 66.147 31.4213 66.147 27.2433C66.147 26.5453 66.222 25.7553 66.396 24.9543L70.528 5.90234H75.508C75.508 5.90234 71.759 23.1733 71.495 24.4083ZM107.635 27.7522C110.5 27.7522 111.644 25.5462 111.863 25.0592H117.459C117.203 26.5502 115.112 32.6252 107.367 32.6252C101.153 32.6252 97.8 28.4882 97.8 23.1232C97.8 16.5662 102.714 11.6602 108.856 11.6602C117.253 11.6602 118.827 17.7262 118.509 19.7102H113.203C113.12 19.2232 112.26 16.5362 108.652 16.5362C105.3 16.5362 103.023 19.5742 103.023 22.9552C103.023 25.0002 104.317 27.7522 107.635 27.7522ZM47.715 5.87109C47.715 5.87109 44.182 22.1901 43.765 24.0801C42.762 28.6171 45.591 32.2341 50.859 32.2331H53.72C59.993 32.2331 64.039 28.5561 64.039 24.1671C64.039 20.1331 60.89 18.8851 60.337 18.7031L60.3894 18.6869C61.1706 18.4467 65.783 17.0287 65.783 12.0201C65.783 9.6981 64.089 5.87109 57.204 5.87109H47.715ZM54.281 20.9461C57.824 20.9461 58.622 22.5181 58.622 23.7571C58.622 25.8041 56.882 27.3231 53.511 27.3231H48.302L49.68 20.9461H54.281ZM56.963 10.7481C59.353 10.7481 60.329 11.8511 60.329 13.1331C60.329 14.6951 58.874 16.0701 56.025 16.0711H50.735L51.886 10.7481H56.963ZM139.582 24.0801C140 22.1901 143.532 5.87109 143.532 5.87109H153.025C159.91 5.87109 161.605 9.6981 161.605 12.0201C161.605 17.0303 156.99 18.4477 156.21 18.6871L156.158 18.7031C156.703 18.8851 159.861 20.1331 159.861 24.1671C159.861 28.5561 155.81 32.2331 149.537 32.2331H146.678C141.408 32.2341 138.578 28.6171 139.582 24.0801ZM154.439 23.7571C154.439 22.5181 153.64 20.9461 150.099 20.9461H145.495L144.118 27.3231H149.329C152.699 27.3231 154.439 25.8041 154.439 23.7571ZM156.145 13.1331C156.145 11.8511 155.173 10.7481 152.777 10.7481H147.702L146.553 16.0711H151.844C154.691 16.0701 156.145 14.6951 156.145 13.1331ZM185.893 20.7853C187.111 14.8833 190.725 11.7383 196.039 11.7383C197.105 11.7383 197.956 11.8463 198.495 11.9153C198.448 12.1346 198.358 12.5457 198.251 13.038L198.25 13.0441C197.979 14.2862 197.596 16.0416 197.498 16.5443L197.445 16.5366L197.402 16.5302C197.12 16.4882 196.637 16.4163 195.923 16.4163C193.44 16.4163 191.593 17.6023 190.833 21.0953C190.253 23.7603 188.419 32.2403 188.419 32.2403H183.442C183.442 32.2403 185.369 23.3223 185.893 20.7853ZM212.974 40.0847L229.678 11.7387H224.302L216.626 25.0787L214.833 11.7227H209.081C202.493 11.7227 199.079 14.7357 197.868 20.5007C197.261 23.3777 195.331 32.2407 195.331 32.2407H200.31C200.31 32.2407 202.137 23.8227 202.864 20.4257C203.567 17.1277 206.013 16.1197 208.651 16.6817L209.7 11.8427C210.477 16.4387 212.853 31.1217 212.853 31.1217L207.641 40.0847H212.974ZM88.2322 23.0855L88.2321 23.0855C87.2122 23.2413 86.0831 23.4138 85.517 23.4975C82.108 24.0015 81.248 25.1125 81.247 26.0505C81.247 27.1865 82.285 28.1425 84.062 28.1425C86.847 28.1425 89.372 26.5505 89.951 24.0715C90.046 23.6675 90.175 23.1205 90.257 22.7785C90.0457 22.8085 89.1869 22.9397 88.2322 23.0855ZM88.249 15.9805C85.058 15.9805 83.777 17.9555 83.654 18.1585V18.1595H78.032L78.0476 18.1225C78.4569 17.147 80.748 11.6875 88.446 11.6875C94.514 11.6875 96.882 14.7375 96.001 19.0525C95.538 21.3335 94.63 25.4665 94.307 26.9045C93.709 29.5775 94.0488 31.2695 94.2304 32.1737L94.242 32.2315H89.096C89.038 31.5785 88.968 30.7685 88.951 30.2275C88.9429 30.2356 88.9308 30.2483 88.9149 30.2652C88.5908 30.6072 86.6517 32.6535 83.095 32.6535C78.603 32.6535 76.074 29.6855 76.074 26.6395C76.074 22.3415 79.835 20.4945 85.786 19.6345C89.25 19.1385 91.25 18.8165 91.25 17.5805C91.25 16.7045 90.233 15.9805 88.249 15.9805ZM176.119 26.0901C175.937 26.4911 174.726 28.1811 172.019 28.1811C168.121 28.1811 167.234 24.8761 167.324 23.9701H182.508L182.526 23.8931C182.635 23.4371 182.938 22.164 182.938 20.8591C182.938 16.0561 179.682 11.6641 173.115 11.6641C167.11 11.6641 162.292 16.7141 162.292 22.7111C162.292 28.5131 165.776 32.6291 171.937 32.6291C179.55 32.6291 181.601 26.6661 181.798 26.0911C180.441 26.0901 176.119 26.0901 176.119 26.0901ZM173.168 16.2171C176.52 16.2171 177.801 18.2631 177.664 19.9041H168.076C168.324 18.8621 169.923 16.2171 173.168 16.2171ZM25.76 2.864C25.76 1.6 24.988 0 21.736 0H16.726L15.303 6.587H20.522C24.601 6.588 25.76 4.658 25.76 2.864ZM6.433 9.91016C9.686 9.91016 10.46 11.5142 10.46 12.7782C10.46 14.5672 9.298 16.5022 5.22 16.5022H0L1.424 9.91016H6.433ZM23.953 12.7782C23.953 11.5142 23.178 9.91016 19.928 9.91016H14.919L13.493 16.5022H18.715C22.794 16.5022 23.953 14.5672 23.953 12.7782ZM34.045 5.89062C37.295 5.89062 38.07 7.49363 38.07 8.75863C38.07 10.5516 36.909 12.4816 32.83 12.4816H27.61L29.036 5.89062H34.045ZM36.124 19.0828C36.124 17.8178 35.351 16.2188 32.099 16.2188H27.09L25.666 22.8067H30.886C34.964 22.8067 36.124 20.8717 36.124 19.0828ZM17.992 20.2305C21.242 20.2305 22.014 21.8335 22.014 23.1035C22.014 24.8925 20.855 26.8225 16.776 26.8215H11.556L12.98 20.2305H17.992Z" f="black"></path>
</svg>