<svg id="ebepngrfgb-Layer_1" class="w-32 h-10 | lg:w-36 lg:h-14 text-gray-600 fill-current 4xl:w-40 4xl:h-16 dark:text-white" xmlns="http://www.w3.org/2000/svg" xmlns:xlink="http://www.w3.org/1999/xlink" version="1.1" x="0px" y="0px" viewBox="0 0 371 150" style="enable-background: new 0 0 371 150;" xml:space="preserve"><style type="text/css">.ebepngrfgb-st0{fill-rule:evenodd;clip-rule:evenodd}</style><path class="ebepngrfgb-st0" d="M35.8,14.5h299.1v121H35.8V14.5z M97.5,26.2H65l-20.8,97.4h24.6l13.5-67.4h0.3l20.4,67.4h32.4L156,26.2h-24.6  l-13.7,67.6h-0.3L97.5,26.2z M165.6,26.2h26.1l-7.7,37.3h30.9l7.7-37.3h26.1l-20.2,97.4h-26.3l8.7-41.7h-30.7l-8.7,41.7h-26.1  L165.6,26.2z M296,43.7c7.4-0.1,14.7,1.4,21.4,4.5l6.2-19.4c-6.6-3.1-17.8-4.3-29.9-4.3c-21.4,0-43.4,7.6-43.4,32.7  c0,15.7,12.3,20.5,22.9,24.7c8,3.1,15,5.9,15,12.6c0,10-12.3,11.6-20.8,11.6c-8.5,0-18.8-2.2-24-5.6l-6.1,19.8  c9.8,3.1,20,4.8,30.3,5c22.6,0,47.6-7,47.6-33.9c0-17.6-13.3-22.9-24.2-27.2c-7.4-2.9-13.6-5.4-13.6-11  C277.3,45.3,285.7,43.7,296,43.7z"></path>
</svg>